<svg width="15" height="15" viewBox="0 0 15 15" fill="none" xmlns="http://www.w3.org/2000/svg">
<path d="M13.75 1.875H1.25001C0.560596 1.875 0 2.4356 0 3.12501V11.875C0 12.5644 0.560596 13.125 1.25001 13.125H13.75C14.4394 13.125 15 12.5644 15 11.875V3.12501C15 2.4356 14.4394 1.875 13.75 1.875ZM1.25001 2.49999H13.75C13.7961 2.49999 13.8366 2.51678 13.8799 2.52627C12.7977 3.51671 9.20927 6.79948 7.95352 7.9309C7.85525 8.0194 7.69688 8.12499 7.50003 8.12499C7.30318 8.12499 7.1448 8.0194 7.04622 7.93061C5.79059 6.79937 2.20198 3.51642 1.11996 2.52633C1.16326 2.51684 1.20393 2.49999 1.25001 2.49999ZM0.62499 11.875V3.12501C0.62499 3.06378 0.643447 3.00823 0.659971 2.95228C1.48825 3.71036 3.99208 6.00091 5.6156 7.47727C3.99735 8.86731 1.49288 11.2418 0.658008 12.0379C0.643271 11.9847 0.62499 11.9328 0.62499 11.875ZM13.75 12.5H1.25001C1.20009 12.5 1.1557 12.4826 1.10909 12.4715C1.9718 11.6491 4.49221 9.26095 6.082 7.9009C6.28925 8.0889 6.47856 8.26031 6.6278 8.39478C6.88538 8.62734 7.18687 8.75001 7.5 8.75001C7.81313 8.75001 8.11462 8.62731 8.37188 8.39508C8.52117 8.26055 8.71064 8.08898 8.918 7.9009C10.5079 9.2608 13.0279 11.6487 13.8909 12.4715C13.8443 12.4826 13.8 12.5 13.75 12.5ZM14.375 11.875C14.375 11.9327 14.3567 11.9847 14.342 12.0379C13.5068 11.2414 11.0026 8.86717 9.38443 7.47729C11.008 6.00094 13.5115 3.7106 14.34 2.95222C14.3566 3.00817 14.375 3.06375 14.375 3.12498V11.875Z" fill="#132C59"/>
</svg>
