<svg id="Слой_1" data-name="Слой 1" xmlns="http://www.w3.org/2000/svg" viewBox="0 0 512 512"><defs><style>.cls-1{fill:#fecd06;}.cls-2{fill:#fecc01;}.cls-3{fill:#fecd05;}</style></defs><path class="cls-1" d="M433.11,91.1c-35.89,38-72.16,75.7-107.54,114.19-23.3,25.35-46.1,51.13-70.54,75.41a85.7,85.7,0,0,0-8.83,9.66c-7.12,9.62-16.41,12.24-24.25,6.47-7.64-5.62-9.08-19-2.33-27.06s13.92-15.54,20.86-23.31c19.76-22.14,40.91-43.05,61.13-64.79,30.85-33.14,61.33-66.62,92.11-99.83,4.42-4.77,9-10.35,14.67-12.84,13.65-6,19.12,4.78,24.72,14.2Z"/><path class="cls-1" d="M433.11,306.91q-47.26,50.61-94.52,101.22-13.35,14.33-26.38,29c-7.12,7.95-15.49,10.56-24.4,4-8.64-6.32-7.33-15.14-3.11-23.64A30.5,30.5,0,0,1,290,410.2c22-23.09,45.23-45.18,65.85-69.46,15-17.63,32.76-32.57,46.66-51.13,7.1-9.49,19.88-7.27,25.71,3.35,1.58,2.89,1,7.14,4.9,8.69Z"/><path class="cls-2" d="M79.3,358.33c0-19.27-.25-38.54.08-57.8.35-20.27,10.57-29,30.57-25.14,39.6,7.57,69.31,30.18,93.91,61.35,17.3,21.92,27.39,46.62,33.29,73.27,5.09,23.06-4.45,34.37-27.8,34.43q-50,.12-100.06,0c-20.48-.07-29.82-9.36-30-29.59C79.19,396,79.3,377.16,79.3,358.33Z"/><path class="cls-1" d="M330.09,87c0,5.81-4.54,11-9.59,16.08-32.63,32.87-62.7,68.12-95,101.34-14,14.36-27.74,29-41.72,43.44-5.16,5.32-10.22,10.73-18.25,2.86-7.69-7.54-12.6-15.24-5.37-25.14a165.18,165.18,0,0,1,18-20.53c19.14-18.66,36.09-39.26,54.55-58.5,20.2-21.07,39.43-43.07,59.17-64.58a103,103,0,0,1,11.34-11c5.17-4.13,11.25-5.16,17.26-1.91C326.69,72.45,330.16,77.8,330.09,87Z"/><path class="cls-1" d="M431.11,194.58c-1.43,8.73-7.09,15.08-12.6,21-34.65,37-70,73.32-104.28,110.6-8.23,8.93-15.88,18.46-24.58,27-10.16,10-18.57,11.12-26.39,3.83-7.38-6.89-6.37-19.67,2.71-29.33,20-21.32,40.36-42.39,60.36-63.75,24.74-26.42,49-53.28,74-79.46,10.3-10.8,24.56-9.08,29.23,2.47C430.53,189.29,430.62,192,431.11,194.58Z"/><path class="cls-3" d="M228.73,85.22c.05,6.52-3.32,11.74-8.1,16.74q-48.45,50.72-96.51,101.77c-5.35,5.67-10,12-15.28,17.74-7.31,8-15.75,9.54-24.42,2.42-7.37-6.06-7.28-19.11.18-27.11,10.71-11.48,21.57-22.79,32-34.59,20.53-23.24,42.65-45.07,64-67.62,6.86-7.26,12.94-15.27,20-22.34,4.95-5,11.47-6.51,18.23-3.39S228.29,77.62,228.73,85.22Z"/><path class="cls-1" d="M127.36,84.34c-.17,11.4-20.31,33.72-30.29,34.36-5.95.38-11.28-1.51-14.93-6.65-3.94-5.56-4.3-11.87-1-17.37a90.55,90.55,0,0,1,19.11-23c5.47-4.67,11.58-5.78,18.29-2.33S127.64,78.39,127.36,84.34Z"/><path class="cls-1" d="M430.8,410.6c.13,10.6-18.62,32.31-29.14,33.66-7.14.92-13.1-1.08-16.78-7.61-4.46-7.9-2.1-15.66,2.6-22.07S398.24,403.12,404,397.7c5-4.69,11.08-5.51,17.09-2.79C427.51,397.84,431.13,403.15,430.8,410.6Z"/></svg>