<svg width="130" height="71" viewBox="0 0 130 71" fill="none" xmlns="http://www.w3.org/2000/svg">
<path d="M74.5882 45.21C74.6845 45.1385 74.7326 45.0669 74.7567 44.9715C74.7807 44.876 74.8048 44.7568 74.8048 44.5659V33.5914H78.0289C78.2695 33.5914 78.462 33.5676 78.6064 33.5199C78.7508 33.4722 78.8711 33.3767 78.9673 33.2097C79.0635 33.0189 79.1357 32.7564 79.1838 32.4224C79.232 32.0884 79.256 31.826 79.256 31.6113C79.256 31.4443 79.232 31.325 79.2079 31.2295C79.1838 31.1341 79.1117 31.0625 79.0395 31.0148C78.9914 30.991 78.8951 30.9433 78.7989 30.9433C78.7026 30.9194 78.5583 30.9194 78.3658 30.9194H68.2843C68.0437 30.9194 67.8512 30.9433 67.7069 30.991C67.5625 31.0387 67.4422 31.1341 67.346 31.3011C67.2497 31.4681 67.1776 31.7067 67.1294 31.993C67.0813 32.2793 67.0573 32.5894 67.0573 32.8757C67.0573 33.0427 67.0813 33.1859 67.1054 33.2813C67.1294 33.3767 67.2016 33.4483 67.2738 33.496C67.3941 33.5676 67.6106 33.5914 67.9234 33.5914H71.5325V44.5659C71.5325 44.876 71.6047 45.0669 71.7731 45.1862C71.9656 45.3293 72.4228 45.4248 73.1687 45.4248C73.9386 45.4486 74.3958 45.3771 74.5882 45.21ZM90.4683 45.2816C91.2142 45.0192 91.8157 44.6852 92.2969 44.2319C92.7781 43.7786 93.115 43.2537 93.3556 42.6334C93.5721 42.0131 93.6924 41.3451 93.6924 40.6294V31.7067C93.6924 31.3965 93.6203 31.2057 93.4518 31.0864C93.2353 30.9433 92.7781 30.8478 92.0804 30.8478C91.3586 30.8478 90.8773 30.9194 90.6849 31.0864C90.5886 31.158 90.5405 31.2295 90.4924 31.325C90.4683 31.4204 90.4443 31.5397 90.4443 31.7306V40.6055C90.4443 40.9634 90.3721 41.3213 90.2518 41.6791C90.1315 42.037 89.8668 42.3471 89.4337 42.5857C89.0247 42.8243 88.4713 42.9436 87.7735 42.9436C87.2923 42.9436 86.8833 42.8959 86.5705 42.7766C86.2336 42.6573 85.969 42.5142 85.7524 42.2994C85.5359 42.0847 85.3915 41.8461 85.2953 41.5598C85.199 41.2736 85.1509 40.9396 85.1509 40.6055V31.7306C85.1509 31.4204 85.0787 31.2295 84.9103 31.1103C84.6937 30.9671 84.2366 30.8717 83.5388 30.8717C82.817 30.8717 82.3358 30.9433 82.1433 31.1103C82.0471 31.1818 81.9989 31.2534 81.9508 31.3488C81.9268 31.4443 81.9027 31.5636 81.9027 31.7544V40.6771C81.9027 41.3928 82.023 42.0609 82.2395 42.6812C82.4561 43.3014 82.817 43.8263 83.2982 44.2796C83.7794 44.7329 84.381 45.0908 85.1268 45.3293C85.8727 45.5918 86.763 45.7111 87.7976 45.7111C88.8322 45.6633 89.7224 45.5441 90.4683 45.2816ZM100.141 45.21C100.237 45.1385 100.285 45.0669 100.333 44.9715C100.381 44.876 100.381 44.7568 100.381 44.5659V31.6828C100.381 31.5158 100.357 31.3727 100.333 31.2773C100.285 31.1818 100.237 31.1103 100.141 31.0387C99.9482 30.8955 99.4911 30.8001 98.7693 30.8001C98.0474 30.8001 97.5662 30.8717 97.3737 31.0387C97.2775 31.1103 97.2294 31.1818 97.1812 31.2773C97.1331 31.3727 97.1331 31.492 97.1331 31.6828V44.5659C97.1331 44.8522 97.2053 45.0669 97.3737 45.1862C97.5662 45.3293 98.0234 45.4248 98.7693 45.4248C99.4911 45.4486 99.9482 45.3771 100.141 45.21Z" fill="#DA2128"/>
<path d="M15.5673 23.0464H26.8999C28.0067 23.0464 28.8488 23.4042 29.1856 24.955C29.5465 26.6966 29.4022 27.9133 27.4292 28.0565L23.8682 28.3189C26.4908 44.7329 41.7934 50.077 50.1425 32.3985C51.514 29.4641 51.9711 28.9392 53.4869 29.3209C55.5321 29.8219 55.8208 30.8717 54.8343 33.83C47.6161 55.6119 23.387 57.8068 18.647 28.7006L15.7598 28.9153C13.4018 29.0823 13.3056 27.126 13.3056 26.0286C13.2815 23.8337 14.0996 23.0464 15.5673 23.0464Z" fill="#DA2128"/>
<path d="M56.7592 12.5252C59.0931 12.5252 60.9698 14.3861 60.9698 16.7003C60.9698 19.0145 59.0931 20.8753 56.7592 20.8753C54.4253 20.8753 52.5486 19.0145 52.5486 16.7003C52.5486 14.3861 54.4494 12.5252 56.7592 12.5252Z" fill="#DA2128"/>
<path d="M74.1791 58.3555C73.722 58.3555 73.313 58.3078 72.9761 58.1885C72.6393 58.0692 72.3746 57.9261 72.1581 57.7114C71.9415 57.5205 71.7731 57.2581 71.6768 56.9957C71.5806 56.7094 71.5325 56.4231 71.5325 56.0891V52.0571C71.5325 51.9856 71.5325 51.914 71.5565 51.8663C71.5806 51.8186 71.6047 51.7947 71.6528 51.7708C71.749 51.6993 71.9415 51.6754 72.2784 51.6754C72.5911 51.6754 72.8077 51.6993 72.9039 51.7708C72.9761 51.8186 73.0002 51.914 73.0002 52.0571V56.0652C73.0002 56.2322 73.0242 56.3754 73.0724 56.4946C73.1205 56.6378 73.1927 56.7332 73.2889 56.8286C73.3851 56.9241 73.5055 56.9957 73.6498 57.0434C73.7942 57.0911 73.9867 57.1149 74.2032 57.1149C74.516 57.1149 74.7566 57.0672 74.9491 56.9479C75.1416 56.8286 75.2619 56.7094 75.31 56.5424C75.3581 56.3754 75.3822 56.2084 75.3822 56.0652V52.0571C75.3822 51.9856 75.3822 51.914 75.4062 51.8663C75.4303 51.8186 75.4544 51.7947 75.5025 51.7708C75.5987 51.6993 75.7912 51.6754 76.1281 51.6754C76.4409 51.6754 76.6574 51.6993 76.7536 51.7708C76.8258 51.8186 76.8499 51.914 76.8499 52.0571V56.0891C76.8499 56.4231 76.8018 56.7094 76.7055 56.9957C76.6093 57.2819 76.4409 57.5205 76.2243 57.7114C76.0078 57.9022 75.7431 58.0692 75.4062 58.1885C75.0453 58.3078 74.6363 58.3555 74.1791 58.3555Z" fill="black"/>
<path d="M78.0048 58.2124C77.8123 58.2124 77.692 58.1647 77.6198 58.0931C77.5476 57.9977 77.5236 57.8784 77.5236 57.7114C77.5236 57.5682 77.5476 57.4728 77.5717 57.3774C77.5957 57.3058 77.6679 57.2104 77.7882 57.0672L79.5687 55.0393H77.9807C77.8363 55.0393 77.7401 55.0155 77.692 54.9916C77.6439 54.9678 77.5957 54.8723 77.5957 54.753C77.5957 54.6576 77.5957 54.5622 77.6198 54.4668C77.6439 54.3713 77.6439 54.2998 77.6679 54.2282C77.692 54.1566 77.692 54.1328 77.716 54.085C77.7401 54.0373 77.8123 53.9896 77.8604 53.9657C77.9326 53.9419 78.0048 53.9419 78.101 53.9419H80.9402C81.1327 53.9419 81.253 53.9896 81.3251 54.0612C81.3973 54.1566 81.4214 54.2759 81.4214 54.4429C81.4214 54.586 81.3973 54.6815 81.3733 54.7769C81.3492 54.8485 81.277 54.9439 81.1567 55.0871L79.3762 57.1149H81.1567C81.3011 57.1149 81.3973 57.1388 81.4454 57.1627C81.4695 57.1865 81.4936 57.2104 81.5176 57.2342C81.5176 57.2581 81.5417 57.3297 81.5417 57.4012C81.5417 57.4967 81.5417 57.616 81.5176 57.7591C81.4936 57.9022 81.4695 57.9977 81.4214 58.0692C81.3973 58.117 81.3251 58.1647 81.277 58.1885C81.2048 58.2124 81.1327 58.2124 81.0364 58.2124H78.0048Z" fill="black"/>
<path d="M84.6697 58.3078C84.4772 58.3078 84.2847 58.284 84.0922 58.2124C83.8997 58.1408 83.7794 58.0692 83.6832 57.9738C83.5869 57.8784 83.5388 57.8068 83.4907 57.7352V57.8784C83.4907 57.95 83.4907 58.0215 83.4666 58.0454C83.4426 58.0692 83.4185 58.117 83.3944 58.1647C83.3463 58.1885 83.2982 58.2124 83.202 58.2362C83.1057 58.2601 82.9854 58.2601 82.841 58.2601C82.6726 58.2601 82.5523 58.2601 82.4801 58.2362C82.3839 58.2124 82.3358 58.1885 82.2876 58.1647C82.2155 58.117 82.1914 58.0215 82.1914 57.8784V52.3196C82.1914 52.1287 82.2155 52.0094 82.2876 51.9379C82.3598 51.8663 82.5042 51.8186 82.7448 51.7709C83.0095 51.7231 83.1779 51.6993 83.2501 51.6993C83.2982 51.6993 83.3463 51.6993 83.3704 51.7231C83.4185 51.7231 83.4426 51.747 83.4666 51.7709C83.5147 51.8186 83.5388 51.914 83.5388 52.1049V54.419C83.611 54.3236 83.7072 54.2282 83.8275 54.1566C83.9478 54.085 84.0922 54.0135 84.2366 53.9896C84.405 53.9419 84.5494 53.9419 84.7178 53.9419C85.0065 53.9419 85.2471 53.9896 85.4637 54.085C85.6802 54.1805 85.8727 54.3236 86.0411 54.5145C86.2095 54.7053 86.3058 54.92 86.402 55.1825C86.4742 55.4449 86.5223 55.7551 86.5223 56.0652C86.5223 56.4708 86.4742 56.8048 86.378 57.1149C86.2817 57.4012 86.1374 57.6398 85.9449 57.8545C85.7765 58.0215 85.584 58.1408 85.3674 58.2362C85.1749 58.2601 84.9343 58.3078 84.6697 58.3078ZM84.3087 57.1149C84.5012 57.1149 84.6456 57.0672 84.79 56.9479C84.9103 56.8287 85.0065 56.7094 85.0546 56.5424C85.1028 56.3754 85.1268 56.2322 85.1268 56.0652C85.1268 55.8505 85.0787 55.6596 85.0065 55.4926C84.9343 55.3495 84.814 55.2302 84.6937 55.1586C84.5734 55.0871 84.4291 55.0632 84.3087 55.0632C84.1163 55.0632 83.9719 55.1109 83.8516 55.2302C83.7313 55.3495 83.635 55.4688 83.5869 55.6119C83.5388 55.7551 83.5147 55.8982 83.5147 56.0414C83.5147 56.3754 83.5869 56.6378 83.7313 56.8287C83.8757 57.0195 84.0681 57.1149 84.3087 57.1149Z" fill="black"/>
<path d="M89.3855 58.3079C89.0486 58.3079 88.7599 58.2602 88.4952 58.1647C88.2305 58.0693 87.9899 57.9262 87.7975 57.7353C87.605 57.5444 87.4606 57.3059 87.3403 57.0434C87.22 56.781 87.1719 56.4708 87.1719 56.1368C87.1719 55.8028 87.22 55.4927 87.3162 55.2303C87.4125 54.9678 87.5569 54.7292 87.7493 54.5145C87.9418 54.2998 88.1584 54.1567 88.4471 54.0612C88.7118 53.9419 89.0246 53.8942 89.3855 53.8942C89.7223 53.8942 90.011 53.9419 90.2757 54.0612C90.5163 54.1805 90.7329 54.3237 90.9013 54.5145C91.0697 54.7054 91.19 54.9201 91.2622 55.1825C91.3344 55.445 91.3825 55.7074 91.3825 55.9698C91.3825 56.2323 91.3344 56.3993 91.2622 56.4708C91.2141 56.5186 91.166 56.5424 91.0697 56.5663C90.9735 56.5901 90.8532 56.5901 90.7088 56.5901H88.5433C88.5674 56.6856 88.5915 56.7571 88.6636 56.8526C88.7118 56.9241 88.7839 56.9957 88.8802 57.0434C88.9764 57.0911 89.0727 57.1389 89.193 57.1866C89.3133 57.2104 89.4576 57.2343 89.6261 57.2343C89.8667 57.2343 90.0832 57.2104 90.2276 57.1866C90.2998 57.1627 90.372 57.1627 90.4441 57.1389C90.5163 57.115 90.5885 57.115 90.6847 57.115C90.781 57.115 90.8291 57.1389 90.8772 57.2104C90.9254 57.282 90.9735 57.3536 90.9975 57.449C91.0697 57.5921 91.0938 57.7353 91.0938 57.8307C91.0938 57.8784 91.0697 57.9262 91.0457 57.9977C91.0216 58.0693 90.9254 58.0932 90.781 58.1409C90.6607 58.1886 90.5404 58.2124 90.396 58.2363C90.2517 58.2602 90.0832 58.284 89.9148 58.3079C89.7464 58.3079 89.578 58.3079 89.3855 58.3079ZM88.5193 55.6597H90.1073C90.1073 55.4688 90.0592 55.3257 89.987 55.1825C89.9148 55.0632 89.7945 54.9678 89.6742 54.9201C89.5539 54.8724 89.4336 54.8485 89.3373 54.8485C89.1689 54.8485 89.0246 54.8962 88.9043 54.9678C88.7839 55.0394 88.6877 55.1587 88.6396 55.278C88.5674 55.3973 88.5193 55.5404 88.5193 55.6597Z" fill="black"/>
<path d="M92.8983 58.2601C92.7299 58.2601 92.6096 58.2601 92.5133 58.2362C92.4171 58.2124 92.3449 58.1885 92.3209 58.1647C92.2487 58.117 92.2246 58.0215 92.2246 57.8784V52.3196C92.2246 52.1287 92.2487 52.0094 92.3209 51.9379C92.393 51.8663 92.5374 51.8186 92.778 51.7709C93.0427 51.7231 93.2111 51.6993 93.2833 51.6993C93.3314 51.6993 93.3795 51.6993 93.4036 51.7231C93.4517 51.7231 93.4758 51.747 93.4998 51.7709C93.548 51.8186 93.572 51.914 93.572 52.1049V55.4211L94.7029 54.2759C94.7991 54.1805 94.8953 54.1327 94.9916 54.085C95.0878 54.0612 95.2081 54.0373 95.3284 54.0373C95.4006 54.0373 95.4969 54.0373 95.5931 54.0373C95.7615 54.0373 95.8818 54.0373 95.9781 54.0612C96.0743 54.085 96.1225 54.1089 96.1706 54.1327C96.1946 54.1566 96.2428 54.1805 96.2428 54.2043C96.2668 54.2282 96.2668 54.2759 96.2668 54.3236C96.2668 54.3952 96.1706 54.5145 95.9781 54.7053L94.8232 55.8505L96.2187 57.5682C96.3871 57.783 96.4834 57.9261 96.4834 57.9738C96.4834 58.0692 96.4352 58.117 96.3631 58.1647C96.3149 58.1885 96.2428 58.2124 96.1465 58.2362C96.0262 58.2601 95.9059 58.284 95.7375 58.284C95.545 58.284 95.3766 58.284 95.2803 58.2601C95.1841 58.2362 95.0878 58.2124 94.9916 58.1647C94.9194 58.117 94.8472 58.0692 94.7991 57.9977L93.572 56.3038V57.8784C93.572 57.95 93.572 58.0215 93.5479 58.0454C93.5239 58.0692 93.4998 58.117 93.4758 58.1408C93.4036 58.2124 93.2111 58.2601 92.8983 58.2601Z" fill="black"/>
<path d="M97.7105 53.3693C97.5902 53.3693 97.494 53.3455 97.3977 53.3216C97.3015 53.2977 97.2293 53.2262 97.1571 53.1546C97.0849 53.083 97.0368 53.0114 96.9887 52.916C96.9406 52.8206 96.9165 52.7252 96.9165 52.6297C96.9165 52.4866 96.9646 52.3673 97.0368 52.248C97.109 52.1287 97.2293 52.0333 97.3496 51.9856C97.4699 51.9379 97.5902 51.914 97.7105 51.914C97.8549 51.914 97.9992 51.9617 98.1436 52.0333C98.2639 52.1049 98.3601 52.2003 98.4323 52.3196C98.5045 52.4389 98.5286 52.5343 98.5286 52.6536C98.5286 52.7967 98.4804 52.9399 98.3842 53.0592C98.288 53.1784 98.1917 53.2739 98.0714 53.3216C97.9511 53.3693 97.8068 53.3693 97.7105 53.3693ZM97.7105 58.2601C97.5421 58.2601 97.4218 58.2601 97.3255 58.2362C97.2293 58.2124 97.1571 58.1885 97.1331 58.1647C97.0609 58.117 97.0368 58.0215 97.0368 57.8784V54.5622C97.0368 54.3713 97.0609 54.252 97.1331 54.1805C97.1812 54.1328 97.2534 54.1089 97.3255 54.085C97.3977 54.0612 97.518 54.0373 97.5902 54.0135C97.8549 53.9657 98.0233 53.9419 98.0955 53.9419C98.1436 53.9419 98.1917 53.9419 98.2158 53.9657C98.2639 53.9657 98.288 53.9896 98.312 54.0135C98.3601 54.0612 98.3842 54.1566 98.3842 54.3475V57.9022C98.3842 57.9738 98.3842 58.0454 98.3601 58.0692C98.3361 58.0931 98.312 58.1408 98.288 58.1647C98.2158 58.2124 98.0233 58.2601 97.7105 58.2601Z" fill="black"/>
<path d="M101.103 58.3079C100.814 58.3079 100.55 58.284 100.285 58.2363C100.02 58.1886 99.8037 58.1409 99.6594 58.0693C99.515 57.9977 99.3947 57.95 99.3466 57.9261C99.2263 57.8546 99.1781 57.8069 99.1541 57.7353C99.13 57.6876 99.106 57.6399 99.106 57.5683C99.106 57.4967 99.13 57.449 99.1541 57.3774C99.1781 57.3058 99.2263 57.2343 99.2503 57.1627C99.3466 57.0196 99.4428 56.9241 99.5391 56.9241C99.6112 56.9241 99.8278 56.9957 100.165 57.1388C100.285 57.1866 100.429 57.2104 100.598 57.2343C100.766 57.2581 100.935 57.282 101.103 57.282C101.295 57.282 101.44 57.2581 101.536 57.1866C101.632 57.115 101.656 57.0434 101.656 56.9718C101.656 56.9003 101.632 56.8287 101.584 56.781C101.536 56.7333 101.44 56.7094 101.344 56.6856C101.247 56.6617 101.127 56.6378 101.007 56.614L100.574 56.5424C100.405 56.5185 100.213 56.4708 100.044 56.3993C99.8759 56.3277 99.7315 56.2561 99.6112 56.1607C99.4909 56.0653 99.3706 55.946 99.2984 55.8028C99.2263 55.6597 99.1781 55.4927 99.1781 55.278C99.1781 54.9439 99.2744 54.6815 99.4909 54.4429C99.6834 54.2282 99.9481 54.0612 100.237 53.9896C100.526 53.9181 100.814 53.8704 101.079 53.8704C101.344 53.8704 101.632 53.8942 101.873 53.9419C102.114 53.9896 102.33 54.0374 102.499 54.1089C102.619 54.1567 102.691 54.2044 102.739 54.2521C102.763 54.2998 102.787 54.3475 102.787 54.4191C102.787 54.4907 102.763 54.6099 102.691 54.7769C102.667 54.8485 102.619 54.9201 102.571 54.9917C102.523 55.0632 102.45 55.0871 102.378 55.0871C102.282 55.0871 102.186 55.0632 102.089 55.0394C101.993 55.0155 101.873 54.9678 101.753 54.944C101.464 54.8962 101.223 54.8724 101.007 54.8724C100.838 54.8724 100.694 54.8962 100.622 54.944C100.55 54.9917 100.526 55.0632 100.526 55.1587C100.526 55.2541 100.574 55.3257 100.694 55.3734C100.814 55.4211 100.959 55.4688 101.127 55.4927L101.608 55.5881C101.945 55.6597 102.21 55.7313 102.426 55.8505C102.643 55.9698 102.811 56.113 102.908 56.28C103.004 56.4708 103.052 56.6617 103.052 56.8764C103.052 57.115 103.004 57.3297 102.908 57.4967C102.811 57.6876 102.667 57.8307 102.499 57.95C102.33 58.0693 102.114 58.1647 101.873 58.2124C101.656 58.284 101.392 58.3079 101.103 58.3079Z" fill="black"/>
<path d="M105.434 58.3078C105.193 58.3078 104.977 58.284 104.833 58.2363C104.664 58.1885 104.52 58.117 104.399 58.0215C104.255 57.9023 104.159 57.7591 104.087 57.5921C104.014 57.4251 103.99 57.2342 103.99 56.9957V55.0394H103.581C103.437 55.0394 103.341 55.0155 103.293 54.9916C103.245 54.9678 103.196 54.8724 103.196 54.7531C103.196 54.6338 103.196 54.5383 103.22 54.3952C103.245 54.2759 103.269 54.1566 103.317 54.0851C103.341 54.0373 103.413 53.9896 103.461 53.9658C103.533 53.9419 103.605 53.9419 103.702 53.9419H103.942V53.2023C103.942 53.0115 103.966 52.8922 104.039 52.8206C104.087 52.7729 104.255 52.7013 104.52 52.6536C104.712 52.6059 104.881 52.582 105.025 52.582C105.073 52.582 105.121 52.582 105.145 52.6059C105.193 52.6059 105.218 52.6297 105.242 52.6536C105.29 52.7013 105.314 52.8206 105.314 52.9876V54.0135H106.204C106.348 54.0135 106.445 54.0373 106.469 54.0612C106.541 54.0851 106.565 54.1805 106.565 54.2998C106.565 54.4191 106.565 54.5384 106.541 54.6576C106.517 54.7769 106.493 54.8962 106.445 54.9678C106.421 55.0155 106.348 55.0632 106.3 55.0632C106.228 55.0871 106.156 55.0871 106.06 55.0871H105.338V56.8287C105.338 56.948 105.362 57.0434 105.434 57.0911C105.482 57.1388 105.554 57.1627 105.675 57.1627C105.771 57.1627 105.867 57.1388 105.963 57.115C106.012 57.0911 106.06 57.0911 106.108 57.0672C106.156 57.0434 106.204 57.0434 106.252 57.0434C106.348 57.0434 106.445 57.1388 106.565 57.3297C106.661 57.5205 106.709 57.6398 106.709 57.7353C106.709 57.8068 106.685 57.8784 106.613 57.95C106.541 58.0215 106.445 58.0693 106.348 58.117C106.276 58.1647 106.156 58.2124 105.987 58.2601C105.867 58.284 105.675 58.3078 105.434 58.3078Z" fill="black"/>
<path d="M108.417 58.3079C108.249 58.3079 108.105 58.284 107.936 58.2363C107.768 58.1886 107.623 58.117 107.479 58.0216C107.335 57.9261 107.239 57.783 107.142 57.616C107.046 57.449 107.022 57.2343 107.022 56.9957C107.022 56.7333 107.07 56.5185 107.166 56.3277C107.263 56.1607 107.407 56.0175 107.551 55.8983C107.72 55.779 107.888 55.7074 108.105 55.6597C108.321 55.612 108.514 55.5642 108.73 55.5642L109.717 55.4927V55.3495C109.717 55.1825 109.669 55.0632 109.548 54.9678C109.428 54.8724 109.236 54.8485 108.995 54.8485C108.827 54.8485 108.706 54.8724 108.586 54.8962C108.466 54.9201 108.369 54.9678 108.273 54.9917C108.225 55.0155 108.153 55.0394 108.033 55.0871C107.936 55.1348 107.864 55.1587 107.816 55.1587C107.768 55.1587 107.72 55.1825 107.696 55.1825C107.575 55.1825 107.455 55.111 107.359 54.944C107.263 54.8008 107.214 54.6577 107.214 54.5622C107.214 54.4907 107.239 54.4429 107.263 54.3952C107.311 54.3475 107.359 54.2998 107.479 54.2282C107.623 54.1567 107.768 54.0851 107.936 54.0374C108.105 53.9896 108.297 53.9419 108.514 53.9181C108.73 53.8942 108.947 53.8704 109.187 53.8704C109.645 53.8704 110.005 53.9419 110.294 54.0851C110.583 54.2282 110.775 54.4429 110.896 54.7054C111.016 54.9678 111.064 55.278 111.064 55.5881V56.9957C111.064 57.2104 111.088 57.3774 111.16 57.5206C111.209 57.6637 111.257 57.7591 111.257 57.783C111.257 57.8546 111.209 57.9261 111.136 57.9739C111.064 58.0216 110.968 58.0693 110.848 58.1409C110.775 58.1647 110.679 58.2124 110.583 58.2363C110.487 58.2601 110.415 58.2601 110.294 58.2601C110.246 58.2601 110.198 58.2363 110.15 58.2124C110.102 58.1886 110.078 58.1409 110.054 58.117C110.03 58.0931 109.981 58.0216 109.957 57.95C109.933 57.8784 109.909 57.8069 109.861 57.7353C109.693 57.9261 109.476 58.0693 109.26 58.1647C109.043 58.2601 108.706 58.3079 108.417 58.3079ZM108.851 57.3297C108.995 57.3297 109.139 57.3058 109.284 57.2343C109.428 57.1627 109.524 57.0673 109.596 56.948C109.669 56.8287 109.693 56.7094 109.693 56.5663V56.3277L108.851 56.3993C108.658 56.4231 108.514 56.4708 108.442 56.5663C108.345 56.6617 108.321 56.781 108.321 56.9003C108.321 56.9957 108.345 57.0673 108.393 57.1388C108.442 57.2104 108.514 57.2581 108.586 57.282C108.658 57.3058 108.754 57.3297 108.851 57.3297Z" fill="black"/>
<path d="M112.797 58.2601C112.628 58.2601 112.508 58.2601 112.412 58.2362C112.315 58.2124 112.243 58.1885 112.219 58.1647C112.147 58.117 112.123 58.0215 112.123 57.8784V54.5622C112.123 54.3713 112.147 54.252 112.219 54.1805C112.267 54.1327 112.315 54.1089 112.412 54.085C112.508 54.0612 112.58 54.0373 112.676 54.0135C112.941 53.9657 113.109 53.9419 113.158 53.9419C113.206 53.9419 113.254 53.9419 113.278 53.9657C113.326 53.9657 113.35 53.9896 113.374 54.0135C113.422 54.0612 113.446 54.1566 113.446 54.3475V54.5622C113.518 54.4429 113.615 54.3236 113.759 54.2043C113.903 54.085 114.048 54.0373 114.216 53.9896C114.385 53.9419 114.553 53.918 114.746 53.918C115.082 53.918 115.347 53.9896 115.588 54.1327C115.828 54.2759 115.973 54.4668 116.069 54.7053C116.165 54.9439 116.189 55.1825 116.189 55.4449V57.9022C116.189 57.9738 116.189 58.0454 116.165 58.0692C116.141 58.117 116.117 58.1408 116.069 58.1647C115.997 58.2362 115.804 58.2601 115.491 58.2601C115.323 58.2601 115.203 58.2601 115.106 58.2362C115.01 58.2124 114.938 58.1885 114.914 58.1647C114.842 58.117 114.818 58.0215 114.818 57.8784V55.6596C114.818 55.4449 114.77 55.2779 114.673 55.1825C114.577 55.087 114.433 55.0393 114.264 55.0393C114.12 55.0393 113.976 55.087 113.831 55.1825C113.711 55.2779 113.615 55.3733 113.567 55.4926C113.518 55.6119 113.494 55.7312 113.494 55.8266V57.8545C113.494 57.9261 113.494 57.9977 113.47 58.0215C113.446 58.0454 113.422 58.0931 113.398 58.117C113.302 58.2124 113.109 58.2601 112.797 58.2601Z" fill="black"/>
</svg>
