<svg width="15" height="15" viewBox="0 0 15 15" fill="none" xmlns="http://www.w3.org/2000/svg">
<path d="M7.49997 0C4.78947 0 2.58435 2.20368 2.58435 4.91241C2.58435 7.51567 7.0516 14.5597 7.24176 14.8583C7.29796 14.9466 7.39534 15 7.49997 15C7.60461 15 7.70198 14.9466 7.75816 14.8583C7.94832 14.5597 12.4155 7.51564 12.4155 4.91241C12.4155 2.20368 10.2104 0 7.49997 0ZM7.49997 14.1161C7.09568 13.4622 6.27521 12.1084 5.46276 10.6083C3.98024 7.87105 3.19663 5.90146 3.19663 4.91241C3.1966 2.54128 5.1271 0.612245 7.49997 0.612245C9.87285 0.612245 11.8033 2.54128 11.8033 4.91241C11.8033 5.90146 11.0196 7.87105 9.53716 10.6083C8.72471 12.1083 7.90424 13.4622 7.49997 14.1161Z" fill="#132C59"/>
<path d="M7.49997 2.32874C6.2178 2.32874 5.17468 3.3435 5.17468 4.5908C5.17468 5.83806 6.2178 6.85277 7.49997 6.85277C8.78213 6.85277 9.82525 5.83806 9.82525 4.5908C9.82525 3.3435 8.78213 2.32874 7.49997 2.32874ZM7.49997 6.24049C6.55542 6.24049 5.78693 5.50044 5.78693 4.59077C5.78693 3.68106 6.55542 2.94095 7.49997 2.94095C8.44451 2.94095 9.213 3.68106 9.213 4.59077C9.213 5.50044 8.44454 6.24049 7.49997 6.24049Z" fill="#132C59"/>
</svg>
